# xmcd
#
# Track frame offsets: 
#        150
#        23097
#        36542
#        52937
#        108207
#        123665
#        140225
#        162077
#        180690
#        199640
#
# Disc length: 2895 seconds
#
# Revision: 0
# Processed by: cddbd v1.5.2PL0 Copyright (c) Steve Scherf et al.
# Submitted via: ExactAudioCopy v1.0b1
#
DISCID=890b4d0a
DTITLE=芳本美代子 - ミ・ヨ・コ~Friendship Concert ’85~
DYEAR=2015
DGENRE=JPop
TTITLE0=Opening~白いバスケット・シューズ
TTITLE1=プライベート・レッスン
TTITLE2=ワンサイデッド・ラヴ
TTITLE3=Takashi-Matsumoto Medley
TTITLE4=クレープ・シュゼット
TTITLE5=透明なエレベーター
TTITLE6=リボンのない贈り物
TTITLE7=P・I・N・K
TTITLE8=雨のハイスクール
TTITLE9=Endless Love Song
EXTD=
EXTT0=
EXTT1=
EXTT2=
EXTT3=
EXTT4=
EXTT5=
EXTT6=
EXTT7=
EXTT8=
EXTT9=
PLAYORDER=
